Coordinates
version=1
nRows=10
nColumns=33
inDegrees=yes

Units are S.I. units (second, meters, Newtons, ...)
Angles are in degrees.

endheader
time	ground_thorax_rot_x	ground_thorax_rot_y	ground_thorax_rot_z	ground_thorax_tx	ground_thorax_ty	ground_thorax_tz	clav_prot_r	clav_elev_r	scapula_abduction_r	scapula_elevation_r	scapula_upward_rot_r	scapula_winging_r	shoulder_elv_r	plane_of_elev_r	axial_rot_r	elbow_flexion_r	pro_sup_r	wrist_flex_r	wrist_dev_r	clav_prot_l	clav_elev_l	scapula_abduction_l	scapula_elevation_l	scapula_upward_rot_l	scapula_winging_l	shoulder_elv_l	plane_of_elev_l	axial_rot_l	elbow_flexion_l	pro_sup_l	wrist_flex_l	wrist_dev_l
      3.27000000	     39.54869715	      9.03179029	     10.96184311	   -230.20334820	    841.34348049	      5.28016194	     11.72391568	     39.70309146	     38.02840215	     45.00000000	    -29.15434570	   2069.79838318	     67.00380606	     33.01267375	     49.47461677	   2181.82306472	    112.58925301	     12.39965684	      1.40413727	      9.57088315	    -45.00000000	    -38.83252732	     45.00000000	    -45.00000000	     97.10070033	    268.52432279	    135.52311890	   -179.99999979	   1092.00089237	     43.34187169	      4.82189823	    -23.11065848
      3.28000000	     39.63190378	      8.98535096	     11.00399215	   -228.36533297	    840.51793235	      5.22454165	     11.98694137	     39.88655412	     38.34042028	     45.00000000	    -29.06387991	   2069.58868096	     66.82893842	     33.31574177	     49.34177611	   2181.63774820	    111.91387825	     12.65414157	      1.31158146	      9.43788011	    -45.00000000	    -38.69964242	     45.00000000	    -45.00000000	     96.83787117	    268.59753000	    135.42727993	   -179.99999979	   1091.87463280	     42.75348890	      4.93584379	    -23.03344266
      3.29000000	     39.56826359	      9.34134869	     11.29668368	   -226.40190387	    839.60916683	      5.16652053	     11.72153227	     39.80513632	     38.23333046	     45.00000000	    -28.73274018	   2069.80243257	     66.85719666	     33.03174748	     48.81199416	   2181.69477893	    111.13235286	     12.76292592	      1.21855038	      9.55752437	    -45.00000000	    -38.80295107	     45.00000000	    -45.00000000	     96.77761016	    268.58158372	    135.34671956	   -179.99999979	   1091.96928331	     42.16051876	      5.09437263	    -23.03300582
      3.30000000	     39.63878335	      9.34659609	     11.36709108	   -224.29702344	    838.60566971	      5.10912989	     11.90188192	     39.97700892	     38.50658674	     45.00000000	    -28.52913666	   2069.65046551	     66.66894649	     33.25088104	     48.55998118	   2181.47995574	    110.03672790	     13.08889147	      1.11905971	      9.43193327	    -45.00000000	    -38.67180098	     45.00000000	    -45.00000000	     96.49778454	    268.63137292	    135.23418377	   -179.99999979	   1091.83126612	     41.50341532	      5.23651738	    -22.94563443
      3.31000000	     39.58537863	      9.64568173	     11.68242839	   -222.05417767	    837.50493555	      5.05127022	     11.73616941	     39.94496810	     38.46918093	     45.00000000	    -28.20029585	   2069.82847528	     66.63410372	     33.05562198	     47.98095354	   2181.44884012	    108.74816134	     13.29820474	      1.02272237	      9.47972007	    -45.00000000	    -38.72609858	     45.00000000	    -45.00000000	     96.39241036	    268.58888806	    135.18352683	   -179.99999979	   1091.89169284	     40.83184977	      5.42830627	    -22.93311549
      3.32000000	     39.72667326	      9.53469458	     11.64266409	   -219.68255436	    836.30710643	      4.99050915	     12.41383284	     40.32807372	     38.92582676	     45.00000000	    -28.22116583	   2069.44544176	     66.36671548	     33.56220927	     47.89710840	   2181.15113743	    106.68151042	     13.82175049	      0.90557970	      9.06493685	    -45.00000000	    -38.55936961	     45.00000000	    -45.00000000	     95.90887189	    268.55753014	    135.23196469	   -179.99999979	   1091.91378125	     39.93370746	      5.55861915	    -22.85575588
      3.33000000	     39.72359287	      9.77635277	     11.90987475	   -217.19731685	    835.01583862	      4.92188208	     12.25696368	     40.34625792	     38.97492924	     45.00000000	    -27.93297609	   2069.51769053	     66.26167501	     33.55498346	     47.25141369	   2180.88172495	    104.42260914	     14.22075707	      0.86807104	      9.16612772	    -45.00000000	    -38.54253599	     45.00000000	    -45.00000000	     95.70086023	    268.55278415	    135.10496975	   -179.99999979	   1091.75121746	     39.10216878	      5.79889378	    -22.77389713
      3.34000000	     39.75043714	      9.95924357	     12.11743868	   -214.60059915	    833.62921588	      4.84560920	     12.59234655	     40.53491522	     39.17405353	     45.00000000	    -27.78982547	   2069.41457344	     66.11510003	     33.64848328	     46.79454271	   2180.59982753	    101.52108765	     14.71045011	      0.83603857	      8.92168451	    -45.00000000	    -38.41542763	     45.00000000	    -45.00000000	     95.35227534	    268.50596398	    135.09160631	   -179.99999979	   1091.78543162	     38.15591955	      6.00287141	    -22.71005909
      3.35000000	     39.60834306	     10.42190411	     12.57857200	   -211.90055616	    832.14934836	      4.76107367	     11.70391409	     40.19432694	     38.97601639	     45.00000000	    -27.22607654	   2069.95939427	     66.17605919	     33.00925052	     45.80785148	   2180.47325776	     99.04210141	     14.93559944	      0.87557413	      9.32525374	    -45.00000000	    -38.66762675	     45.00000000	    -45.00000000	     95.45350872	    268.42714725	    134.81198414	   -179.99999979	   1091.63636627	     37.47933851	      6.36408743	    -22.67828276
      3.36000000	     39.76091294	     10.29669385	     12.59399524	   -209.09206096	    830.57203612	      4.67179691	     12.87002880	     40.74246404	     39.51874236	     45.00000000	    -27.34980358	   2069.43770630	     65.85089751	     33.66241499	     45.88278799	   2179.98739745	     95.11684570	     15.67858355	      0.95255098	      8.65886646	    -45.00000000	    -38.31189269	     45.00000000	    -45.00000000	     94.78443719	    268.38733319	    134.95340283	   -179.99999979	   1091.68325021	     36.44188003	      6.48267663	    -22.55710752
